<svg width="262" height="183" viewBox="0 0 262 183" fill="none" xmlns="http://www.w3.org/2000/svg">
<g clip-path="url(#clip0)">
<path opacity="0.1" d="M152.255 28.952C135.464 28.3682 119.472 22.9369 104.2 16.9963C88.9285 11.0556 73.8029 4.47295 57.4118 1.32584C46.8722 -0.700124 34.8163 -0.986225 26.3223 4.67532C18.1488 10.1229 15.5087 19.527 14.0876 28.2542C13.0195 34.8206 12.3926 41.7289 15.3183 47.8766C17.3501 52.1425 20.9585 55.7292 23.4454 59.8161C32.1274 74.0397 25.9996 91.5756 16.5815 105.464C12.1697 111.977 7.04729 118.192 3.64322 125.126C0.239144 132.06 -1.33054 140.006 1.66254 147.091C4.61614 154.101 11.6472 159.368 19.2797 163.073C34.7536 170.584 53.0023 172.738 70.7959 173.956C110.187 176.655 149.789 175.487 189.284 174.317C203.898 173.882 218.581 173.445 232.959 171.179C240.944 169.923 249.187 167.923 254.985 163.11C262.344 156.995 264.169 146.64 259.237 138.971C250.966 126.108 228.096 122.921 222.317 109.109C219.133 101.512 222.403 93.048 227.028 86.0024C236.948 70.8833 253.576 57.6249 254.451 40.3449C255.055 28.4822 247.06 16.5915 234.7 10.9765C221.743 5.09168 203.78 5.83135 194.22 15.5751C184.377 25.6072 167.081 29.4661 152.255 28.952Z" fill="#00A3FF"/>
<path d="M209.594 158.614C208.652 158.308 207.656 158.202 206.671 158.302C205.471 158.433 205.64 160.263 206.845 160.177C207.448 160.13 208.044 160.02 208.624 159.849L209.594 158.614Z" fill="#00A3FF"/>
<path d="M209.959 158.63C210.393 159.523 210.636 160.497 210.674 161.489C210.714 162.698 208.879 162.785 208.796 161.577C208.759 160.973 208.786 160.367 208.875 159.768L209.959 158.63Z" fill="#00A3FF"/>
<path d="M212.69 154.713C212.69 154.713 212.102 152.866 208.51 153.583C206.885 153.906 206.929 156.241 208.556 156.488H208.626C210.997 156.818 211.821 155.876 212.69 154.713Z" fill="#00A3FF"/>
<path d="M213.064 154.604C213.064 154.604 214.993 154.755 215.114 158.419C215.17 160.068 212.892 160.568 212.281 159.037C212.281 159.014 212.265 158.993 212.255 158.97C211.403 156.735 212.13 155.716 213.064 154.604Z" fill="#00A3FF"/>
<path d="M215.641 149.882C215.505 149.212 215.194 148.59 214.738 148.08C214.283 147.571 213.7 147.192 213.05 146.984C210.618 146.216 209.334 149.859 211.71 150.785C212.693 151.144 213.74 151.296 214.784 151.231L215.641 149.882Z" fill="#00A3FF"/>
<path d="M218.606 143.799C218.606 143.799 217.624 141.473 215.077 141.008C212.376 140.513 211.559 144.576 214.227 145.225C215.424 145.486 216.662 145.496 217.863 145.256L218.606 143.799Z" fill="#00A3FF"/>
<path d="M220.396 137.81C219.981 137.155 219.437 136.591 218.799 136.152C218.161 135.712 217.44 135.406 216.681 135.251C214.359 134.814 213.577 138.296 215.857 138.892C217.289 139.242 218.787 139.222 220.208 138.831L220.396 137.81Z" fill="#00A3FF"/>
<path d="M222.085 131.972C221.344 130.748 220.191 129.83 218.834 129.383C216.512 128.669 215.365 132.195 217.673 132.963C219.041 133.417 220.52 133.412 221.885 132.946L222.085 131.972Z" fill="#00A3FF"/>
<path d="M222.795 126.652C222.795 126.652 221.866 124.47 219.974 123.317C217.865 122.03 215.857 125.177 217.884 126.594C219.133 127.471 220.733 128.076 222.602 127.671L222.795 126.652Z" fill="#00A3FF"/>
<path d="M223.146 120.342C223.146 120.342 222.122 118.139 220.157 117.085C217.961 115.922 216.05 119.137 218.119 120.523C219.472 121.428 221.163 122.014 222.958 121.307L223.146 120.342Z" fill="#00A3FF"/>
<path d="M222.927 114.587C222.161 113.396 221.222 112.326 220.141 111.412C218.604 110.154 216.658 112.419 218.114 113.764C219.458 114.999 221.133 116.036 222.862 115.952L222.927 114.587Z" fill="#00A3FF"/>
<path d="M222.345 109.065C221.467 107.582 220.409 106.213 219.196 104.99C217.993 103.827 216.215 105.599 217.338 106.825C218.636 108.221 220.387 109.667 222.491 110.3L222.345 109.065Z" fill="#00A3FF"/>
<path d="M221.218 102.571C220.495 101.443 219.651 100.398 218.704 99.4515C217.492 98.2629 215.664 100.052 216.828 101.287C218.063 102.601 219.66 103.831 221.534 104.25L221.218 102.571Z" fill="#00A3FF"/>
<path d="M220.234 96.5114C219.49 95.5022 218.682 94.5412 217.817 93.6341C216.846 92.6316 215.295 94.0412 216.21 95.0972C217.285 96.3393 218.664 97.4395 220.25 97.6163L220.234 96.5114Z" fill="#00A3FF"/>
<path d="M219.212 90.8917C218.533 89.5607 217.757 88.2818 216.89 87.0654C216.163 86.0699 214.649 87.1352 215.334 88.1587C216.231 89.5008 217.475 90.8289 219.11 91.4686L219.212 90.8917Z" fill="#00A3FF"/>
<path d="M218.369 83.4229C218.369 83.4229 217.796 82.4483 216.976 81.3155C216.219 80.2711 214.622 81.3504 215.323 82.432C216.112 83.6438 217.101 84.6766 218.253 84.8813L218.369 83.4229Z" fill="#00A3FF"/>
<path d="M217.968 78.4731L217.241 74.8329C217.048 73.8699 215.615 74.1002 215.731 75.0655C215.992 77.01 216.66 78.9662 218.116 80.2502L217.968 78.4731Z" fill="#00A3FF"/>
<path d="M218.4 68.1269C218.332 67.966 218.208 67.8355 218.05 67.7601C217.893 67.6848 217.714 67.6697 217.546 67.7178C217.379 67.766 217.234 67.8739 217.141 68.0213C217.047 68.1687 217.011 68.3453 217.039 68.5177C217.2 69.5288 217.446 70.5247 217.773 71.495L218.4 68.1269Z" fill="#00A3FF"/>
<path d="M215.804 149.81C216.452 149.595 217.146 149.558 217.814 149.702C218.482 149.846 219.099 150.166 219.602 150.629C221.46 152.366 218.948 155.281 216.967 153.678C216.169 153 215.518 152.165 215.056 151.224L215.804 149.81Z" fill="#00A3FF"/>
<path d="M218.771 143.579C218.771 143.579 221.214 142.988 223.104 144.76C225.108 146.64 222.338 149.717 220.227 147.956C219.305 147.148 218.559 146.157 218.037 145.046L218.771 143.579Z" fill="#00A3FF"/>
<path d="M220.557 138.219C221.188 137.767 221.904 137.446 222.663 137.278C223.421 137.109 224.205 137.095 224.968 137.238C227.29 137.703 226.712 141.222 224.374 140.922C222.915 140.71 221.535 140.13 220.362 139.236L220.557 138.219Z" fill="#00A3FF"/>
<path d="M222.201 132.004C223.342 131.146 224.752 130.724 226.176 130.816C228.605 131.027 228.345 134.723 225.914 134.57C224.474 134.48 223.104 133.92 222.013 132.977L222.201 132.004Z" fill="#00A3FF"/>
<path d="M222.765 126.803C222.765 126.803 224.054 124.812 226.111 123.998C228.393 123.093 229.859 126.519 227.641 127.573C226.248 128.231 224.569 128.564 222.786 127.841L222.765 126.803Z" fill="#00A3FF"/>
<path d="M222.846 120.246C222.846 120.246 224.149 118.199 226.232 117.418C228.554 116.545 230.037 119.988 227.806 121.093C226.345 121.814 224.592 122.172 222.907 121.237L222.846 120.246Z" fill="#00A3FF"/>
<path d="M222.41 114.526C222.904 113.199 223.592 111.952 224.453 110.828C225.684 109.267 228.078 111.061 226.935 112.689C225.886 114.185 224.483 115.555 222.756 115.845L222.41 114.526Z" fill="#00A3FF"/>
<path d="M222.231 109.056C222.658 107.382 223.291 105.767 224.116 104.25C224.95 102.803 227.149 104.001 226.401 105.495C225.547 107.204 224.265 109.077 222.421 110.274L222.231 109.056Z" fill="#00A3FF"/>
<path d="M220.884 102.268C221.386 100.978 222.029 99.7478 222.802 98.6002C223.759 97.2046 225.879 98.5723 225.003 100.014C224.051 101.587 222.709 103.169 220.91 103.969L220.884 102.268Z" fill="#00A3FF"/>
<path d="M219.811 96.4789C220.07 95.2517 220.406 94.0421 220.817 92.8572C221.281 91.5384 223.28 92.1757 222.886 93.5178C222.421 95.0949 221.625 96.6696 220.257 97.4907L219.811 96.4789Z" fill="#00A3FF"/>
<path d="M219.066 90.7824C219.424 89.3302 219.89 87.9066 220.459 86.5235C220.942 85.3884 222.66 86.0792 222.224 87.2329C221.657 88.7448 220.747 90.3219 219.303 91.3174L219.066 90.7824Z" fill="#00A3FF"/>
<path d="M217.949 83.9346C217.949 83.9346 218.167 82.8251 218.564 81.483C218.931 80.2455 220.798 80.7317 220.494 81.9854C220.155 83.381 219.565 84.6952 218.543 85.2721L217.949 83.9346Z" fill="#00A3FF"/>
<path d="M218.209 78.2265L219.472 74.7375C219.807 73.8071 221.2 74.2583 220.928 75.2027C220.382 77.0868 219.435 78.9243 217.798 79.971L218.209 78.2265Z" fill="#00A3FF"/>
<path d="M219.783 68.4921C219.783 68.4921 219.981 68.334 220.283 68.0851C220.898 67.5734 221.701 68.4666 221.121 69.0155C220.11 69.9357 218.948 70.6738 217.687 71.1973L219.783 68.4921Z" fill="#00A3FF"/>
<path d="M219.7 66.4708C220.455 64.9267 221.296 63.4264 222.219 61.9769C222.272 61.877 222.287 61.7611 222.261 61.6511C222.235 61.541 222.169 61.4443 222.077 61.379C221.985 61.3137 221.872 61.2843 221.76 61.2963C221.647 61.3083 221.543 61.3609 221.467 61.4443C220.724 62.4631 219.995 63.9541 219.442 66.1452L219.7 66.4708Z" fill="#00A3FF"/>
<path d="M218.26 84.9394L218.53 84.9115C217.368 74.0699 217.858 67.3849 219.888 66.0894L219.742 65.8568C217.591 67.2361 217.081 73.8327 218.26 84.9394Z" fill="#444053"/>
<path d="M222.254 110.572L222.656 110.512C222.505 109.509 222.331 108.49 222.136 107.488C220.445 98.6886 219.131 90.5545 218.474 84.3766L218.179 84.144C218.838 90.3335 220.037 98.749 221.739 107.56C221.929 108.556 222.103 109.572 222.254 110.572Z" fill="#444053"/>
<path d="M203.446 165.369C203.506 165.32 209.692 160.579 215.123 151.487C218.306 146.166 220.626 140.373 221.996 134.323C223.712 126.761 223.761 117.955 222.523 109.707L222.161 109.998C224.948 128.508 219.632 142.881 214.673 151.189C209.295 160.198 203.181 164.89 203.118 164.936L203.446 165.369Z" fill="#444053"/>
<path d="M45.0518 165.327C53.5862 165.327 60.5048 163.994 60.5048 162.35C60.5048 160.705 53.5862 159.372 45.0518 159.372C36.5173 159.372 29.5987 160.705 29.5987 162.35C29.5987 163.994 36.5173 165.327 45.0518 165.327Z" fill="#00A3FF"/>
<path d="M44.7917 163.443C45.7855 163.443 46.5912 162.387 46.5912 161.084C46.5912 159.782 45.7855 158.726 44.7917 158.726C43.7978 158.726 42.9921 159.782 42.9921 161.084C42.9921 162.387 43.7978 163.443 44.7917 163.443Z" fill="#3F3D56"/>
<path d="M44.7917 160.559C45.7855 160.559 46.5912 159.503 46.5912 158.2C46.5912 156.897 45.7855 155.841 44.7917 155.841C43.7978 155.841 42.9921 156.897 42.9921 158.2C42.9921 159.503 43.7978 160.559 44.7917 160.559Z" fill="#3F3D56"/>
<path d="M44.7917 157.677C45.7855 157.677 46.5912 156.621 46.5912 155.318C46.5912 154.015 45.7855 152.959 44.7917 152.959C43.7978 152.959 42.9921 154.015 42.9921 155.318C42.9921 156.621 43.7978 157.677 44.7917 157.677Z" fill="#3F3D56"/>
<path d="M44.7917 154.792C45.7855 154.792 46.5912 153.736 46.5912 152.434C46.5912 151.131 45.7855 150.075 44.7917 150.075C43.7978 150.075 42.9921 151.131 42.9921 152.434C42.9921 153.736 43.7978 154.792 44.7917 154.792Z" fill="#3F3D56"/>
<path d="M44.7917 151.908C45.7855 151.908 46.5912 150.852 46.5912 149.549C46.5912 148.247 45.7855 147.191 44.7917 147.191C43.7978 147.191 42.9921 148.247 42.9921 149.549C42.9921 150.852 43.7978 151.908 44.7917 151.908Z" fill="#3F3D56"/>
<path d="M44.7917 149.026C45.7855 149.026 46.5912 147.97 46.5912 146.667C46.5912 145.365 45.7855 144.309 44.7917 144.309C43.7978 144.309 42.9921 145.365 42.9921 146.667C42.9921 147.97 43.7978 149.026 44.7917 149.026Z" fill="#3F3D56"/>
<path d="M44.7917 146.142C45.7855 146.142 46.5912 145.086 46.5912 143.783C46.5912 142.481 45.7855 141.425 44.7917 141.425C43.7978 141.425 42.9921 142.481 42.9921 143.783C42.9921 145.086 43.7978 146.142 44.7917 146.142Z" fill="#3F3D56"/>
<path d="M51.5255 124.049C51.7721 123.736 51.9964 123.406 52.1966 123.061L47.469 122.284L52.5774 122.321C53.0682 121.252 53.336 120.095 53.3643 118.919C53.3927 117.743 53.181 116.574 52.7423 115.482L45.8831 119.046L52.2082 114.394C51.6168 113.366 50.8201 112.47 49.8679 111.764C48.9157 111.058 47.8284 110.556 46.6739 110.29C45.5194 110.024 44.3225 109.999 43.1579 110.216C41.9933 110.434 40.886 110.89 39.9052 111.556C38.9244 112.221 38.0911 113.083 37.4573 114.085C36.8236 115.088 36.403 116.211 36.2218 117.383C36.0406 118.556 36.1027 119.754 36.4042 120.902C36.7057 122.049 37.2402 123.122 37.9743 124.054C37.5919 124.542 37.2626 125.07 36.9921 125.629L43.1291 128.822L36.5903 126.622C36.1314 127.982 36.0185 129.436 36.2617 130.852C36.505 132.267 37.0968 133.599 37.9836 134.728C36.9831 136.001 36.3606 137.531 36.1872 139.142C36.0138 140.754 36.2966 142.381 37.0032 143.839C37.7098 145.297 38.8117 146.526 40.1829 147.386C41.554 148.246 43.1391 148.702 44.7569 148.702C46.3746 148.702 47.9597 148.246 49.3309 147.386C50.702 146.526 51.8039 145.297 52.5105 143.839C53.2171 142.381 53.4999 140.754 53.3266 139.142C53.1532 137.531 52.5307 136.001 51.5302 134.728C52.7259 133.207 53.376 131.327 53.376 129.391C53.376 127.455 52.7259 125.575 51.5302 124.054L51.5255 124.049Z" fill="#00A3FF"/>
<path opacity="0.1" d="M36.1352 129.387C36.1332 131.323 36.7828 133.203 37.9789 134.723C36.9784 135.997 36.3559 137.527 36.1825 139.138C36.0091 140.749 36.2919 142.377 36.9985 143.834C37.7051 145.292 38.807 146.521 40.1782 147.381C41.5494 148.241 43.1345 148.697 44.7522 148.697C46.37 148.697 47.955 148.241 49.3262 147.381C50.6974 146.521 51.7993 145.292 52.5059 143.834C53.2125 142.377 53.4953 140.749 53.3219 139.138C53.1485 137.527 52.526 135.997 51.5255 134.723C52.6819 133.256 36.1352 128.417 36.1352 129.387Z" fill="black"/>
<path d="M53.8638 60.7651V163.508C53.8638 163.979 53.9564 164.445 54.1364 164.88C54.3163 165.316 54.5801 165.711 54.9125 166.044C55.245 166.377 55.6397 166.641 56.0741 166.822C56.5086 167.002 56.9742 167.095 57.4444 167.095H204.63C205.58 167.095 206.49 166.717 207.162 166.044C207.833 165.371 208.211 164.459 208.211 163.508V60.7651H53.8638Z" fill="white"/>
<path opacity="0.1" d="M100.966 69.9622H68.0861C66.9768 69.9622 66.0776 70.863 66.0776 71.9742V89.645C66.0776 90.7562 66.9768 91.657 68.0861 91.657H100.966C102.075 91.657 102.974 90.7562 102.974 89.645V71.9742C102.974 70.863 102.075 69.9622 100.966 69.9622Z" fill="black"/>
<path opacity="0.1" d="M147.478 69.9622H114.598C113.489 69.9622 112.59 70.863 112.59 71.9742V89.645C112.59 90.7562 113.489 91.657 114.598 91.657H147.478C148.587 91.657 149.487 90.7562 149.487 89.645V71.9742C149.487 70.863 148.587 69.9622 147.478 69.9622Z" fill="black"/>
<path d="M100.446 70.2669H68.6039C67.4946 70.2669 66.5954 71.1677 66.5954 72.2789V89.338C66.5954 90.4492 67.4946 91.35 68.6039 91.35H100.446C101.555 91.35 102.454 90.4492 102.454 89.338V72.2789C102.454 71.1677 101.555 70.2669 100.446 70.2669Z" fill="#00A3FF"/>
<path opacity="0.1" d="M161.629 91.35H193.47C194.58 91.35 195.479 90.4492 195.479 89.338V72.2789C195.479 71.1677 194.58 70.2669 193.47 70.2669H161.629C160.519 70.2669 159.62 71.1677 159.62 72.2789V89.338C159.62 90.4492 160.519 91.35 161.629 91.35Z" fill="#444053"/>
<path d="M115.116 91.35H146.958C148.067 91.35 148.967 90.4492 148.967 89.338V72.2789C148.967 71.1677 148.067 70.2669 146.958 70.2669H115.116C114.007 70.2669 113.108 71.1677 113.108 72.2789V89.338C113.108 90.4492 114.007 91.35 115.116 91.35Z" fill="#00A3FF"/>
<path opacity="0.1" d="M100.446 100.722H68.6039C67.4946 100.722 66.5954 101.622 66.5954 102.734V119.793C66.5954 120.904 67.4946 121.805 68.6039 121.805H100.446C101.555 121.805 102.454 120.904 102.454 119.793V102.734C102.454 101.622 101.555 100.722 100.446 100.722Z" fill="#444053"/>
<path opacity="0.1" d="M161.629 121.805H193.47C194.58 121.805 195.479 120.904 195.479 119.793V102.734C195.479 101.622 194.58 100.722 193.47 100.722H161.629C160.519 100.722 159.62 101.622 159.62 102.734V119.793C159.62 120.904 160.519 121.805 161.629 121.805Z" fill="#444053"/>
<path opacity="0.1" d="M115.116 121.805H146.958C148.067 121.805 148.967 120.904 148.967 119.793V102.734C148.967 101.622 148.067 100.722 146.958 100.722H115.116C114.007 100.722 113.108 101.622 113.108 102.734V119.793C113.108 120.904 114.007 121.805 115.116 121.805Z" fill="#444053"/>
<path opacity="0.1" d="M100.446 131.176H68.6039C67.4946 131.176 66.5954 132.077 66.5954 133.188V150.247C66.5954 151.358 67.4946 152.259 68.6039 152.259H100.446C101.555 152.259 102.454 151.358 102.454 150.247V133.188C102.454 132.077 101.555 131.176 100.446 131.176Z" fill="#444053"/>
<path opacity="0.1" d="M161.629 152.262H193.47C194.58 152.262 195.479 151.361 195.479 150.25V133.19C195.479 132.079 194.58 131.178 193.47 131.178H161.629C160.519 131.178 159.62 132.079 159.62 133.19V150.25C159.62 151.361 160.519 152.262 161.629 152.262Z" fill="#444053"/>
<path opacity="0.1" d="M115.116 152.262H146.958C148.067 152.262 148.967 151.361 148.967 150.25V133.19C148.967 132.079 148.067 131.178 146.958 131.178H115.116C114.007 131.178 113.108 132.079 113.108 133.19V150.25C113.108 151.361 114.007 152.262 115.116 152.262Z" fill="#444053"/>
<path d="M53.8638 42.6198V61.2861H208.211V42.6198C208.211 42.1485 208.118 41.6819 207.939 41.2465C207.759 40.811 207.495 40.4154 207.163 40.0821C206.83 39.7487 206.435 39.4843 206.001 39.3039C205.566 39.1236 205.1 39.0307 204.63 39.0307H57.4444C56.974 39.0307 56.5082 39.1236 56.0736 39.3039C55.6391 39.4843 55.2442 39.7487 54.9117 40.0821C54.5792 40.4154 54.3155 40.811 54.1357 41.2465C53.9559 41.6819 53.8635 42.1485 53.8638 42.6198ZM92.061 48.1417C91.4956 48.1417 90.943 47.9738 90.4729 47.6592C90.0029 47.3446 89.6365 46.8974 89.4202 46.3742C89.2038 45.8509 89.1472 45.2752 89.2575 44.7198C89.3678 44.1644 89.64 43.6542 90.0398 43.2537C90.4395 42.8533 90.9489 42.5806 91.5033 42.4701C92.0578 42.3596 92.6325 42.4163 93.1548 42.633C93.6771 42.8497 94.1236 43.2167 94.4376 43.6876C94.7517 44.1585 94.9194 44.7121 94.9194 45.2784C94.9194 46.0378 94.6182 46.7661 94.0822 47.3031C93.5461 47.8401 92.8191 48.1417 92.061 48.1417ZM170.013 48.1417C169.448 48.1417 168.895 47.9738 168.425 47.6592C167.955 47.3446 167.589 46.8974 167.373 46.3742C167.156 45.8509 167.1 45.2752 167.21 44.7198C167.32 44.1644 167.592 43.6542 167.992 43.2537C168.392 42.8533 168.901 42.5806 169.456 42.4701C170.01 42.3596 170.585 42.4163 171.107 42.633C171.63 42.8497 172.076 43.2167 172.39 43.6876C172.704 44.1585 172.872 44.7121 172.872 45.2784C172.872 45.6548 172.798 46.0275 172.654 46.3752C172.51 46.7229 172.299 47.0388 172.033 47.3047C171.767 47.5707 171.451 47.7815 171.104 47.9251C170.757 48.0687 170.384 48.1424 170.009 48.1417H170.013Z" fill="#00A3FF"/>
<path opacity="0.1" d="M92.0609 41.894C91.3926 41.8936 90.7392 42.0917 90.1833 42.4633C89.6274 42.8349 89.194 43.3633 88.9379 43.9817C88.6819 44.6 88.6146 45.2806 88.7447 45.9372C88.8748 46.5939 89.1964 47.1972 89.6688 47.6707C90.1412 48.1442 90.7432 48.4668 91.3987 48.5976C92.0541 48.7284 92.7335 48.6615 93.351 48.4054C93.9685 48.1493 94.4963 47.7155 94.8676 47.1589C95.239 46.6023 95.4372 45.9479 95.4372 45.2784C95.4375 44.8341 95.3504 44.394 95.1808 43.9834C95.0113 43.5728 94.7627 43.1997 94.4491 42.8854C94.1356 42.5711 93.7633 42.3218 93.3535 42.1517C92.9437 41.9816 92.5045 41.894 92.0609 41.894ZM92.0609 48.1418C91.4956 48.1418 90.943 47.9738 90.4729 47.6592C90.0028 47.3446 89.6365 46.8974 89.4201 46.3742C89.2038 45.851 89.1472 45.2752 89.2575 44.7198C89.3678 44.1644 89.64 43.6542 90.0398 43.2537C90.4395 42.8533 90.9488 42.5806 91.5033 42.4701C92.0578 42.3596 92.6325 42.4163 93.1548 42.633C93.6771 42.8497 94.1235 43.2168 94.4376 43.6876C94.7517 44.1585 94.9194 44.7121 94.9194 45.2784C94.9194 46.0378 94.6182 46.7661 94.0821 47.3031C93.5461 47.8401 92.819 48.1418 92.0609 48.1418Z" fill="black"/>
<path opacity="0.1" d="M170.009 41.894C169.341 41.894 168.687 42.0925 168.132 42.4644C167.576 42.8363 167.143 43.3649 166.887 43.9833C166.632 44.6017 166.565 45.2822 166.695 45.9387C166.825 46.5952 167.147 47.1982 167.62 47.6715C168.092 48.1448 168.694 48.4672 169.35 48.5977C170.005 48.7283 170.684 48.6613 171.302 48.4052C171.919 48.149 172.447 47.7152 172.818 47.1587C173.189 46.6021 173.387 45.9478 173.387 45.2784C173.387 44.3808 173.031 43.52 172.398 42.8853C171.764 42.2506 170.905 41.894 170.009 41.894ZM170.009 48.1418C169.443 48.1418 168.891 47.9738 168.421 47.6592C167.951 47.3446 167.584 46.8974 167.368 46.3742C167.152 45.851 167.095 45.2752 167.205 44.7198C167.316 44.1644 167.588 43.6542 167.988 43.2537C168.387 42.8533 168.897 42.5806 169.451 42.4701C170.006 42.3596 170.58 42.4163 171.103 42.633C171.625 42.8497 172.071 43.2168 172.385 43.6876C172.699 44.1585 172.867 44.7121 172.867 45.2784C172.867 46.0378 172.566 46.7661 172.03 47.3031C171.494 47.8401 170.767 48.1418 170.009 48.1418Z" fill="black"/>
<path opacity="0.1" d="M239.887 101.231C241.846 101.231 243.433 99.6407 243.433 97.6791C243.433 95.7175 241.846 94.1273 239.887 94.1273C237.929 94.1273 236.342 95.7175 236.342 97.6791C236.342 99.6407 237.929 101.231 239.887 101.231Z" fill="#00A3FF"/>
<path opacity="0.1" d="M252.573 87.7935C255.856 87.7935 258.517 85.1275 258.517 81.8388C258.517 78.5502 255.856 75.8842 252.573 75.8842C249.29 75.8842 246.628 78.5502 246.628 81.8388C246.628 85.1275 249.29 87.7935 252.573 87.7935Z" fill="#00A3FF"/>
<path opacity="0.1" d="M244.703 116.687C247.986 116.687 250.648 114.021 250.648 110.733C250.648 107.444 247.986 104.778 244.703 104.778C241.42 104.778 238.759 107.444 238.759 110.733C238.759 114.021 241.42 116.687 244.703 116.687Z" fill="#00A3FF"/>
<path opacity="0.1" d="M8.41731 88.81C13.0661 88.81 16.8346 85.0349 16.8346 80.3781C16.8346 75.7213 13.0661 71.9463 8.41731 71.9463C3.76856 71.9463 0 75.7213 0 80.3781C0 85.0349 3.76856 88.81 8.41731 88.81Z" fill="#00A3FF"/>
<path d="M214.937 172.212C214.409 171.813 213.829 171.487 213.214 171.242C213.168 171.218 213.116 171.204 213.064 171.202C211.791 170.288 210.602 169.262 209.511 168.137C209.743 167.951 209.957 167.769 210.184 167.59C208.791 166.925 208.018 165.401 207.265 164.027C205.276 160.372 202.655 157.101 199.524 154.364C199.447 154.069 198.999 154.132 198.76 153.941C198.682 153.866 198.625 153.771 198.595 153.667C198.566 153.563 198.564 153.453 198.59 153.348C198.628 153.134 198.725 152.936 198.778 152.727C198.906 152.236 198.795 151.72 198.739 151.215C198.683 150.71 198.706 150.147 199.041 149.77C199.148 149.647 199.285 149.552 199.389 149.426C199.499 149.278 199.576 149.109 199.616 148.929C199.656 148.749 199.658 148.562 199.621 148.382C199.596 148.02 199.518 147.663 199.389 147.323C200.527 144.222 201.664 141.115 202.8 138.003C203.597 135.831 204.4 133.612 204.481 131.295C204.546 129.434 204.068 127.501 202.944 126.08C203.149 126.031 203.353 125.98 203.555 125.922C202.227 124.159 202.083 121.823 202.048 119.602C202.029 118.495 201.991 117.387 201.934 116.278C202.32 116.448 202.71 116.599 203.109 116.729L203.481 116.843C204.084 117.02 204.699 117.152 205.322 117.239C205.596 117.278 205.875 117.308 206.151 117.327C205.751 116.325 205.353 115.322 204.955 114.317C204.748 113.872 204.622 113.394 204.584 112.905V112.812C204.584 112.756 204.584 112.701 204.595 112.645C204.611 112.512 204.641 112.381 204.686 112.254C204.706 112.191 204.73 112.13 204.758 112.07C204.84 111.887 204.94 111.712 205.055 111.547C205.138 111.419 205.231 111.296 205.324 111.17C205.67 110.766 205.952 110.31 206.158 109.819C206.239 109.57 206.283 109.31 206.286 109.049C206.29 108.783 206.267 108.518 206.216 108.258C206.183 108.086 206.142 107.911 206.095 107.744C206.065 107.639 206.032 107.534 206 107.432L205.972 107.348C205.947 107.269 205.921 107.193 205.893 107.116L205.865 107.037C205.835 106.953 205.805 106.872 205.772 106.788L205.754 106.739C205.31 105.597 204.721 104.508 204.361 103.334C204.266 103.021 204.188 102.703 204.128 102.382C204.112 102.301 204.101 102.217 204.087 102.136C204.073 102.054 204.066 101.996 204.056 101.926C204.047 101.857 204.036 101.764 204.026 101.682L204.005 101.45C204.005 101.375 203.994 101.301 203.989 101.217C203.989 101.075 203.975 100.933 203.973 100.791C203.973 100.74 203.973 100.691 203.973 100.64C203.973 100.533 203.973 100.424 203.973 100.317C203.973 100.259 203.973 100.201 203.973 100.145C203.973 100.038 203.989 99.9307 203.998 99.826C203.998 99.7748 203.998 99.7237 204.015 99.6748C204.03 99.5198 204.051 99.3647 204.077 99.2096C204.101 99.0724 204.126 98.9328 204.154 98.7933C204.238 98.4113 204.282 98.0214 204.284 97.6302C204.284 97.5558 204.284 97.4791 204.268 97.3976C204.251 97.3162 204.249 97.272 204.238 97.2116C204.236 97.193 204.236 97.1743 204.238 97.1557C204.238 97.1139 204.217 97.072 204.207 97.0301C204.198 96.9883 204.196 96.9906 204.189 96.972C204.182 96.9534 204.163 96.8906 204.149 96.851C204.135 96.8115 204.138 96.8161 204.131 96.7975C204.124 96.7789 204.098 96.7138 204.08 96.6743L204.063 96.6324C204.04 96.5812 204.015 96.5324 203.989 96.4835C203.899 96.3138 203.795 96.1519 203.678 95.9997C202.914 94.9949 201.644 94.2296 200.945 93.1224C200.537 92.4048 200.271 91.615 200.162 90.7964C200.128 90.6103 200.097 90.4242 200.065 90.2405C200.032 90.0567 200.004 89.8753 199.972 89.6938C199.951 89.5822 199.93 89.4612 199.907 89.3589L199.893 89.2868C199.874 89.1984 199.856 89.1077 199.835 89.0193L199.821 88.9565C199.8 88.8635 199.779 88.7704 199.756 88.6774L199.742 88.6285C199.719 88.5308 199.693 88.4331 199.668 88.3354C199.667 88.3238 199.667 88.3122 199.668 88.3006C199.64 88.1982 199.61 88.0959 199.58 87.9935V87.9726C199.547 87.8656 199.515 87.7609 199.48 87.6563C199.445 87.5493 199.408 87.4399 199.368 87.3329C199.326 87.2236 199.287 87.1143 199.243 87.0073C198.951 86.2579 198.555 85.5532 198.068 84.9139C197.004 83.5462 195.36 82.5646 193.656 82.6297C192.741 82.6646 191.863 82.9856 191.002 83.3043L188.766 84.13L189.391 83.8416C188.74 83.8997 188.076 83.9602 187.489 84.2486C186.901 84.537 186.404 85.1023 186.386 85.7629C186.374 86.1467 186.525 86.5281 186.476 86.9096C186.395 87.5399 185.817 87.9679 185.517 88.5262C185.342 88.8625 185.262 89.2406 185.285 89.6194V89.638C185.285 89.6822 185.285 89.7241 185.285 89.7683C185.284 89.7807 185.284 89.7931 185.285 89.8055V89.8799C184.356 89.4752 183.428 89.0542 182.499 88.6029C180.964 87.847 179.411 86.9584 178.454 85.5256C178.147 85.0604 177.91 84.558 177.606 84.0974C177.257 83.6018 176.869 83.1351 176.445 82.7018L173.596 79.6129C173.378 80.0246 173.659 80.5107 173.879 80.9201C174.114 81.3495 174.291 81.8077 174.407 82.2831C174.463 82.438 174.458 82.6086 174.393 82.76C174.289 82.8847 174.154 82.9802 174.003 83.0368C173.742 83.2008 173.544 83.4466 173.437 83.7356C173.331 84.0246 173.323 84.3408 173.415 84.6347C173.516 84.9242 173.691 85.1824 173.922 85.3838C174.152 85.5853 174.432 85.7231 174.732 85.7838C174.933 85.8067 175.13 85.8552 175.319 85.928C175.663 86.0978 175.825 86.4932 176.071 86.7886C176.52 87.3283 177.232 87.5306 177.913 87.7074C178.967 88.9263 180.063 90.0939 181.117 91.3128C182.712 93.1573 184.345 95.0344 186.425 96.2812C186.641 96.4114 186.862 96.5324 187.085 96.644C187.085 96.6812 187.085 96.7184 187.073 96.7557C187.015 97.0306 187.05 97.3171 187.173 97.5698C187.359 97.8652 187.742 97.9536 188.083 98.014L189.658 98.2955C189.644 98.4999 189.618 98.7034 189.581 98.9049C189.56 99.0282 189.535 99.1491 189.511 99.2724L189.483 99.4306C189.483 99.4306 189.483 99.4469 189.483 99.4539C189.483 99.4608 189.483 99.5376 189.467 99.5818C189.451 99.626 189.467 99.612 189.467 99.626V99.7376V99.7841C189.467 99.833 189.467 99.8842 189.467 99.9353C189.521 100.554 189.932 101.066 190.343 101.538L190.563 101.805C190.213 102.247 189.968 102.762 189.846 103.313C189.776 103.658 189.741 104.009 189.743 104.362C189.533 104.563 189.374 104.812 189.279 105.087C189.169 105.469 189.128 105.866 189.158 106.262V106.29C189.158 106.437 189.158 106.581 189.158 106.727C189.131 107.283 189.223 107.838 189.428 108.356C189.449 108.397 189.472 108.435 189.493 108.474C189.144 109.158 188.564 109.691 188.148 110.335C187.728 111.05 187.538 111.878 187.604 112.705C187.67 113.533 187.989 114.32 188.517 114.959C188.836 115.327 189.244 115.68 189.281 116.169C189.276 116.39 189.254 116.611 189.216 116.829C189.179 117.355 189.421 117.853 189.551 118.362C189.66 118.785 189.665 119.293 189.423 119.632C189.179 119.989 189.066 120.42 189.105 120.851C189.223 121.509 188.952 122.167 188.905 122.835C188.884 123.121 188.905 123.412 188.88 123.698C188.846 123.972 188.79 124.243 188.71 124.507C188.71 124.535 188.696 124.566 188.687 124.596C188.113 124.849 187.545 125.112 186.997 125.417C186.701 125.549 186.456 125.774 186.3 126.059C186.207 126.345 186.194 126.65 186.263 126.943L186.757 130.39L186.671 130.353C186.71 130.917 186.75 131.484 186.792 132.053C186.822 132.483 186.862 132.939 187.117 133.284C187.247 133.422 187.365 133.573 187.468 133.732C187.663 134.128 187.431 134.588 187.259 134.993C187.087 135.398 187.027 135.972 187.405 136.191C187.603 136.329 187.815 136.443 188.039 136.531C187.575 138.471 188.002 140.504 188.434 142.45C188.764 143.939 189.094 145.426 189.425 146.912C189.555 147.543 189.628 148.184 189.644 148.828C189.644 148.921 189.644 149.014 189.644 149.108C189.69 149.993 189.846 150.87 190.108 151.717C190.624 153.457 190.129 155.546 190.291 157.442C190.4 158.354 190.581 159.255 190.835 160.138C191.956 164.594 192.957 168.962 193.343 173.545C193.755 174.071 194.314 174.462 194.949 174.668C194.903 175.231 194.966 175.875 194.949 176.203C194.949 176.475 194.907 176.745 194.824 177.004C194.627 177.52 194.127 177.857 193.61 178.039C193.447 178.094 193.282 178.139 193.115 178.178L193.301 178.02C192.239 177.789 191.129 177.984 190.21 178.564C190.066 178.638 189.938 178.74 189.833 178.863C189.728 178.987 189.649 179.131 189.6 179.285C189.561 179.581 189.638 179.88 189.813 180.12C190.324 180.87 191.086 181.412 191.961 181.649C192.826 181.877 193.714 182.001 194.608 182.018L196.247 182.114C196.192 182.208 196.172 182.318 196.192 182.426C196.211 182.533 196.269 182.63 196.354 182.698C196.53 182.826 196.739 182.902 196.956 182.916C197.626 183.016 198.306 183.026 198.978 182.947C199.147 182.942 199.31 182.883 199.443 182.779C199.473 182.751 199.498 182.717 199.515 182.678C199.532 182.64 199.541 182.599 199.541 182.557C199.541 182.515 199.532 182.474 199.515 182.435C199.498 182.397 199.473 182.363 199.443 182.335C199.541 182.332 199.636 182.299 199.716 182.241C199.795 182.183 199.855 182.102 199.888 182.009C199.953 181.82 199.973 181.619 199.949 181.421C199.905 180.655 199.837 179.544 199.44 178.862C199.372 178.738 199.264 178.64 199.135 178.583C199.005 178.526 198.86 178.513 198.723 178.546C198.466 177.184 198.311 175.804 198.258 174.419C198.667 174.266 199.066 174.085 199.452 173.88C198.312 172.035 198.291 169.693 198.639 167.548C198.777 166.871 198.879 166.187 198.943 165.499C199.02 164.127 198.813 162.573 198.054 161.438C199.438 162.32 200.663 163.43 201.676 164.722C203.281 166.816 204.258 169.351 206.225 171.095C206.484 170.843 206.745 170.591 207.01 170.342C207.425 171.046 207.817 171.765 208.187 172.498C208.478 173.037 208.707 173.608 208.87 174.198C209.051 175.102 209.072 176.03 208.933 176.941C208.878 177.425 208.813 177.906 208.735 178.385C208.704 178.59 208.657 178.792 208.594 178.99C208.593 178.927 208.578 178.865 208.55 178.809C208.426 178.592 208.085 178.69 207.899 178.839C207.569 179.087 207.295 179.405 207.098 179.769C206.99 179.947 206.94 180.154 206.954 180.362C206.984 180.487 207.042 180.604 207.122 180.705C207.202 180.805 207.303 180.887 207.419 180.944C208.28 181.449 209.362 181.083 210.286 180.711C210.542 180.619 210.785 180.497 211.011 180.346C211.475 180.011 211.728 179.46 212.19 179.134C212.437 178.999 212.675 178.848 212.903 178.683C213.333 178.29 213.368 177.627 213.681 177.129C214.201 176.271 215.365 176.05 215.82 175.14C216.347 174.136 215.732 172.868 214.937 172.212Z" fill="url(#paint0_linear)"/>
<path d="M194.919 176.306C194.918 176.574 194.875 176.841 194.792 177.097C194.597 177.606 194.095 177.939 193.579 178.118C193.064 178.297 192.516 178.35 191.991 178.506C191.761 178.559 191.547 178.669 191.371 178.827C190.907 179.292 191.185 180.13 191.729 180.476C192.272 180.823 192.964 180.811 193.61 180.767C194.979 180.687 196.34 180.493 197.678 180.188C198.161 180.074 198.725 179.851 198.802 179.36C198.816 179.204 198.804 179.046 198.765 178.895C198.435 177.23 198.26 175.537 198.242 173.84C198.242 173.728 195.549 173.656 195.298 173.819C194.736 174.189 194.949 175.733 194.919 176.306Z" fill="#A1616A"/>
<path d="M206.929 170.381C207.375 171.121 207.793 171.875 208.185 172.645C208.475 173.176 208.704 173.739 208.868 174.322C209.048 175.213 209.069 176.128 208.93 177.027C208.876 177.503 208.81 177.978 208.731 178.453C208.654 178.918 208.531 179.446 208.134 179.713C208.311 179.818 208.509 179.882 208.714 179.901C208.919 179.919 209.125 179.89 209.318 179.818C209.701 179.669 210.054 179.453 210.361 179.178C212.351 177.534 213.844 175.145 213.918 172.561C213.939 172.359 213.901 172.155 213.809 171.975C213.715 171.848 213.597 171.742 213.461 171.663C211.976 170.65 210.596 169.489 209.344 168.2C209.27 168.1 209.163 168.032 209.042 168.006C208.947 168.007 208.854 168.034 208.772 168.083C208.008 168.467 206.731 169.014 206.413 169.886C206.631 169.996 206.81 170.168 206.929 170.381Z" fill="#A1616A"/>
<path d="M197.641 179.006C195.969 179.704 194.158 179.955 192.349 180.195C192.117 180.223 191.868 180.241 191.715 180.079C191.654 180.003 191.617 179.91 191.61 179.813C191.603 179.716 191.625 179.619 191.673 179.534C191.772 179.366 191.904 179.221 192.061 179.106L193.261 178.099C192.215 177.877 191.123 178.065 190.21 178.625C189.923 178.768 189.705 179.019 189.602 179.323C189.563 179.615 189.64 179.911 189.815 180.148C190.329 180.89 191.09 181.424 191.961 181.656C192.825 181.88 193.713 182.003 194.606 182.021L196.231 182.114C196.175 182.207 196.155 182.317 196.176 182.423C196.196 182.53 196.254 182.625 196.34 182.691C196.517 182.82 196.726 182.896 196.944 182.912C197.613 183.009 198.293 183.019 198.964 182.94C199.133 182.937 199.296 182.879 199.429 182.774C199.459 182.747 199.484 182.713 199.501 182.676C199.518 182.638 199.526 182.597 199.526 182.556C199.526 182.514 199.518 182.474 199.501 182.436C199.484 182.398 199.459 182.365 199.429 182.337C199.527 182.334 199.622 182.302 199.701 182.244C199.781 182.186 199.841 182.106 199.874 182.014C199.937 181.827 199.957 181.63 199.935 181.435C199.891 180.681 199.823 179.574 199.426 178.915C199.029 178.257 198.203 178.774 197.641 179.006Z" fill="#3F3D56"/>
<path d="M214.896 172.356C214.366 171.963 213.787 171.641 213.173 171.4C213.148 171.381 213.12 171.368 213.089 171.362C213.059 171.356 213.028 171.356 212.998 171.364C212.968 171.372 212.94 171.386 212.917 171.406C212.893 171.426 212.874 171.451 212.862 171.479C211.765 172.97 210.909 174.624 210.324 176.38C209.992 177.38 209.729 178.446 209.056 179.255C208.967 179.362 208.824 179.471 208.703 179.409C208.529 179.32 208.635 179.039 208.538 178.869C208.417 178.655 208.087 178.753 207.89 178.899C207.558 179.146 207.285 179.464 207.091 179.83C206.98 180.003 206.93 180.208 206.947 180.413C206.976 180.536 207.032 180.651 207.11 180.75C207.188 180.849 207.287 180.929 207.4 180.986C208.262 181.486 209.344 181.125 210.266 180.753C210.52 180.663 210.763 180.542 210.988 180.393C211.452 180.065 211.705 179.518 212.167 179.199C212.414 179.065 212.652 178.916 212.88 178.753C213.307 178.364 213.344 177.711 213.656 177.218C214.176 176.373 215.339 176.155 215.794 175.257C216.303 174.254 215.69 173.003 214.896 172.356Z" fill="#3F3D56"/>
<path d="M201.936 125.894C203.762 127.266 204.528 129.706 204.446 131.99C204.365 134.274 203.564 136.466 202.77 138.608C201.632 141.674 200.496 144.738 199.361 147.803C199.488 148.139 199.566 148.491 199.593 148.849C199.629 149.027 199.627 149.211 199.587 149.388C199.547 149.565 199.47 149.732 199.361 149.877C199.254 150.001 199.129 150.096 199.013 150.217C198.679 150.589 198.658 151.147 198.711 151.643C198.765 152.138 198.878 152.65 198.751 153.134C198.697 153.341 198.6 153.536 198.563 153.746C198.537 153.85 198.539 153.959 198.568 154.062C198.598 154.165 198.655 154.258 198.732 154.332C198.964 154.518 199.429 154.457 199.496 154.75C202.618 157.444 205.236 160.674 207.228 164.287C207.981 165.643 208.74 167.146 210.145 167.802C208.776 168.888 207.464 170.044 206.214 171.265C204.251 169.544 203.274 167.039 201.672 164.985C200.658 163.708 199.434 162.612 198.054 161.745C198.813 162.864 199.02 164.399 198.943 165.75C198.879 166.429 198.777 167.104 198.639 167.772C198.279 169.888 198.312 172.191 199.452 174.019C198.235 174.652 196.837 175.122 195.479 174.933C194.627 174.812 193.853 174.369 193.315 173.696C192.929 169.174 191.922 164.857 190.809 160.468C190.554 159.592 190.373 158.697 190.268 157.791C190.106 155.93 190.6 153.86 190.083 152.143C189.822 151.308 189.666 150.444 189.618 149.57C189.618 149.477 189.618 149.387 189.618 149.294C189.602 148.659 189.529 148.027 189.4 147.405L188.411 143.004C187.979 141.08 187.547 139.075 188.014 137.161C187.791 137.075 187.579 136.963 187.382 136.828C187.004 136.612 187.064 136.047 187.236 135.647C187.408 135.247 187.637 134.793 187.445 134.402C187.342 134.244 187.225 134.095 187.094 133.958C186.839 133.618 186.799 133.17 186.769 132.746L186.648 131.067C187.349 131.345 187.933 131.857 188.302 132.516C187.387 131.097 187.837 129.073 188.513 127.524C188.638 127.05 188.914 126.629 189.298 126.324C189.682 126.019 190.155 125.847 190.644 125.833C194.367 125.196 198.913 123.617 201.936 125.894Z" fill="#3F3D56"/>
<path opacity="0.1" d="M200.239 135.444C200.239 135.444 198.409 136.668 198.409 137.584C198.409 138.501 197.945 146.749 197.945 146.749V152.564C197.945 152.564 198.249 155.62 197.945 156.383C197.641 157.146 197.945 160.661 197.945 161.119C197.945 161.577 198.409 156.383 198.409 156.383V150.875L198.874 138.347L200.239 135.444Z" fill="black"/>
<path d="M190.034 93.0782L188.968 92.6618C186.79 91.7873 184.61 90.9104 182.501 89.8846C180.969 89.1379 179.415 88.2564 178.461 86.8491C178.154 86.3839 177.917 85.8954 177.613 85.4372C177.264 84.9471 176.875 84.4858 176.452 84.0579L173.606 81.0108C173.387 81.4178 173.666 81.897 173.889 82.2994C174.122 82.7235 174.299 83.1762 174.416 83.6462C174.471 83.7975 174.465 83.9642 174.4 84.1114C174.297 84.2359 174.163 84.3306 174.012 84.3859C173.753 84.5451 173.554 84.7866 173.448 85.0719C173.341 85.3573 173.333 85.6701 173.424 85.9606C173.526 86.2477 173.701 86.5034 173.931 86.7024C174.162 86.9015 174.44 87.037 174.739 87.0957C174.939 87.119 175.137 87.1666 175.326 87.2376C175.67 87.4074 175.832 87.7958 176.078 88.0866C176.527 88.6192 177.239 88.8216 177.917 88.9937C178.972 90.1963 180.065 91.3476 181.12 92.5502C182.712 94.3692 184.342 96.2207 186.423 97.4535C187.162 97.9059 187.971 98.2314 188.817 98.4164C189.097 96.6106 189.503 94.8267 190.034 93.0782Z" fill="#A1616A"/>
<path opacity="0.15" d="M190.034 93.0782L188.968 92.6618C186.79 91.7873 184.61 90.9104 182.501 89.8846C180.969 89.1379 179.415 88.2564 178.461 86.8491C178.154 86.3839 177.917 85.8954 177.613 85.4372C177.264 84.9471 176.875 84.4858 176.452 84.0579L173.606 81.0108C173.387 81.4178 173.666 81.897 173.889 82.2994C174.122 82.7235 174.299 83.1762 174.416 83.6462C174.471 83.7975 174.465 83.9642 174.4 84.1114C174.297 84.2359 174.163 84.3306 174.012 84.3859C173.753 84.5451 173.554 84.7866 173.448 85.0719C173.341 85.3573 173.333 85.6701 173.424 85.9606C173.526 86.2477 173.701 86.5034 173.931 86.7024C174.162 86.9015 174.44 87.037 174.739 87.0957C174.939 87.119 175.137 87.1666 175.326 87.2376C175.67 87.4074 175.832 87.7958 176.078 88.0866C176.527 88.6192 177.239 88.8216 177.917 88.9937C178.972 90.1963 180.065 91.3476 181.12 92.5502C182.712 94.3692 184.342 96.2207 186.423 97.4535C187.162 97.9059 187.971 98.2314 188.817 98.4164C189.097 96.6106 189.503 94.8267 190.034 93.0782Z" fill="black"/>
<path d="M188.083 99.1514C187.742 99.091 187.359 99.0072 187.173 98.7142C187.05 98.4657 187.015 98.1828 187.073 97.9117C187.258 96.1586 187.648 94.4332 188.234 92.7712C188.752 93.7318 189.771 94.2924 190.737 94.7971C191.6 95.2774 192.499 95.6881 193.426 96.0253C193.194 95.9509 192.625 99.5283 192.305 99.7469C191.901 100.031 190.925 99.6469 190.477 99.5701L188.083 99.1514Z" fill="#00A3FF"/>
<path d="M190.556 98.0955C193.252 98.0955 195.437 95.9064 195.437 93.2061C195.437 90.5059 193.252 88.3168 190.556 88.3168C187.861 88.3168 185.675 90.5059 185.675 93.2061C185.675 95.9064 187.861 98.0955 190.556 98.0955Z" fill="#A1616A"/>
<path d="M189.565 97.2534C189.565 97.2534 192.767 100.003 191.395 101.836C190.022 103.669 189.258 104.892 191.088 105.046C192.918 105.199 199.018 101.989 199.018 101.989C199.018 101.989 193.375 97.4069 194.29 94.6576C195.205 91.9082 189.565 97.2534 189.565 97.2534Z" fill="#FBBEBE"/>
<path d="M192.637 101.557C191.954 101.721 191.331 102.072 190.836 102.571C190.341 103.069 189.994 103.696 189.834 104.38C189.474 106.027 190.238 107.869 189.518 109.386C189.179 110.107 188.55 110.647 188.125 111.324C187.707 112.028 187.517 112.846 187.583 113.663C187.649 114.48 187.966 115.256 188.492 115.885C188.81 116.248 189.219 116.599 189.256 117.078C189.25 117.297 189.229 117.514 189.191 117.729C189.154 118.248 189.395 118.741 189.525 119.244C189.634 119.66 189.639 120.16 189.398 120.495C189.154 120.846 189.042 121.272 189.082 121.698C189.198 122.349 188.926 122.998 188.88 123.656C188.859 123.94 188.88 124.224 188.854 124.507C188.82 124.778 188.764 125.044 188.687 125.305L188.278 126.815C190.494 127.764 192.848 128.106 195.244 128.062C197.39 128.02 199.505 127.575 201.604 127.131C202.243 126.996 202.881 126.861 203.511 126.687C202.183 124.947 202.041 122.642 202.004 120.453C201.946 116.804 201.674 113.161 201.189 109.544C201.832 108.328 202.118 106.972 202.382 105.62C202.501 105.076 202.551 104.519 202.531 103.962C202.466 102.799 201.932 101.694 201.409 100.64C200.931 99.6771 200.413 98.663 199.347 98.2466C199.09 98.138 198.809 98.097 198.532 98.1275C198.254 98.1581 197.989 98.2591 197.761 98.4211C196.956 99.0305 197.195 100.082 196.988 100.98C196.717 102.143 195.646 102.978 194.506 103.306C193.655 103.529 192.773 103.612 191.896 103.55C191.81 103.545 191.727 103.516 191.657 103.467C191.586 103.418 191.531 103.349 191.496 103.27C191.462 103.191 191.451 103.104 191.463 103.019C191.475 102.933 191.511 102.853 191.566 102.787C191.94 102.373 192.316 101.952 192.637 101.557Z" fill="#00A3FF"/>
<path d="M196.417 120.456C194.61 121.935 192.783 123.428 190.698 124.475C189.474 125.089 188.174 125.543 186.983 126.203C186.688 126.333 186.444 126.555 186.286 126.836C186.191 127.117 186.178 127.42 186.249 127.708L186.778 131.365C186.925 132.355 187.874 132.993 188.636 133.625C188.594 133.293 188.527 133.035 188.685 132.739C188.739 132.647 188.799 132.558 188.864 132.472C189.189 131.979 189.2 131.339 189.121 130.753C189.042 130.167 188.889 129.59 188.919 128.99C188.913 128.89 188.932 128.791 188.975 128.701C189.018 128.612 189.084 128.535 189.165 128.478C191.759 127.229 194.552 126.271 197.174 125.084C197.868 124.803 198.521 124.432 199.118 123.979C199.717 123.519 200.12 122.848 200.246 122.102C200.258 122.054 200.26 122.004 200.252 121.955C200.244 121.905 200.226 121.858 200.2 121.816C200.147 121.758 200.078 121.718 200.002 121.7C198.827 121.272 197.587 120.879 196.417 120.456Z" fill="#A1616A"/>
<path opacity="0.1" d="M191.399 105.113C190.503 105.264 189.56 105.729 189.256 106.59C189.147 106.967 189.106 107.361 189.135 107.753C189.107 108.304 189.2 108.854 189.407 109.365C189.56 109.647 189.742 109.912 189.95 110.156C192.096 112.91 193.173 116.369 195.263 119.167C195.449 119.413 195.788 119.734 195.683 120.025C195.645 120.101 195.612 120.178 195.583 120.258C195.574 120.333 195.583 120.409 195.61 120.48C195.636 120.551 195.68 120.615 195.737 120.665C195.848 120.767 195.935 120.894 195.99 121.035C196.029 121.181 195.932 121.372 195.781 121.36C196.032 122.137 196.8 122.591 197.529 122.958C198.741 123.57 200.083 124.052 201.433 123.919C201.686 122.902 202.039 121.753 201.897 120.718C201.749 119.928 201.487 119.163 201.119 118.448L200.211 116.462C199.438 114.766 198.658 113.059 197.58 111.54C197.192 111.059 196.865 110.532 196.607 109.97C196.331 109.251 195.572 108.746 195.112 108.13C194.429 107.199 193.719 106.269 192.804 105.597C192.437 105.313 191.847 105.039 191.399 105.113Z" fill="black"/>
<path d="M191.399 104.655C190.503 104.806 189.56 105.271 189.256 106.13C189.147 106.507 189.106 106.901 189.135 107.293C189.107 107.843 189.2 108.393 189.407 108.904C189.56 109.187 189.742 109.452 189.95 109.695C192.096 112.449 193.173 115.908 195.263 118.706C195.449 118.953 195.788 119.274 195.683 119.565C195.645 119.64 195.612 119.718 195.583 119.797C195.574 119.872 195.583 119.949 195.61 120.02C195.636 120.091 195.68 120.154 195.737 120.204C195.848 120.307 195.935 120.433 195.99 120.574C196.029 120.721 195.932 120.911 195.781 120.9C196.031 121.677 196.8 122.13 197.529 122.498C198.741 123.11 200.083 123.591 201.433 123.458C201.686 122.442 202.039 121.293 201.897 120.258C201.749 119.467 201.487 118.703 201.119 117.988L200.211 116.001C199.438 114.306 198.658 112.598 197.58 111.079C197.192 110.598 196.865 110.07 196.607 109.507C196.331 108.791 195.572 108.286 195.112 107.669C194.429 106.739 193.719 105.809 192.804 105.136C192.437 104.855 191.847 104.58 191.399 104.655Z" fill="#00A3FF"/>
<path d="M189.353 85.1744C188.706 85.2302 188.039 85.2907 187.454 85.5745C186.869 85.8582 186.37 86.4165 186.351 87.0678C186.351 87.4469 186.49 87.8237 186.442 88.1982C186.36 88.8216 185.782 89.2426 185.485 89.7939C184.965 90.7522 185.369 91.971 186.042 92.8177C186.716 93.6644 187.628 94.3157 188.32 95.1577C188.866 95.8309 189.261 96.6139 189.478 97.4535C189.695 98.2931 189.729 99.1697 189.579 100.024C189.493 100.356 189.451 100.697 189.456 101.04C189.509 101.65 189.92 102.154 190.329 102.62C192.317 104.948 194.156 107.4 195.836 109.961C196.341 110.704 196.794 111.481 197.193 112.287C197.587 113.119 197.889 114.008 198.437 114.745C198.943 115.378 199.563 115.911 200.265 116.315C202.034 117.409 204.042 118.057 206.116 118.206L204.92 115.236C204.709 114.708 204.491 114.152 204.56 113.587C204.693 112.517 205.77 111.814 206.121 110.796C206.353 110.14 206.248 109.416 206.058 108.749C205.635 107.244 204.79 105.89 204.335 104.394C203.936 103.083 203.847 101.697 204.075 100.345C204.175 99.7493 204.337 99.1515 204.263 98.5537C204.042 96.7347 201.913 95.8648 200.929 94.3226C200.292 93.3318 200.169 92.1106 199.956 90.9522C199.647 89.2612 199.097 87.5725 198.033 86.2234C196.97 84.8743 195.33 83.8974 193.621 83.9695C192.706 84.0044 191.831 84.3231 190.97 84.6347L188.731 85.4512" fill="#3F3D56"/>
<g opacity="0.1">
<path opacity="0.1" d="M199.345 88.9728C199.538 90.0172 199.658 91.1127 200.146 92.0455C200.079 91.6826 200.023 91.3174 199.956 90.9592C199.798 90.0474 199.547 89.1542 199.208 88.2936C199.266 88.5192 199.306 88.7448 199.345 88.9728Z" fill="black"/>
<path opacity="0.1" d="M203.464 98.3653C203.238 99.7179 203.327 101.105 203.724 102.417C203.834 102.773 203.957 103.115 204.105 103.464C203.912 102.436 203.902 101.383 204.075 100.352C204.175 99.7562 204.337 99.1584 204.263 98.5607C204.195 98.0484 203.986 97.5653 203.659 97.165C203.625 97.5698 203.532 97.9675 203.464 98.3653Z" fill="black"/>
<path opacity="0.1" d="M206.058 108.756C205.929 108.319 205.774 107.89 205.594 107.472C205.672 107.92 205.641 108.381 205.505 108.816C205.155 109.833 204.075 110.537 203.945 111.607C203.875 112.173 204.091 112.728 204.305 113.256C204.384 113.454 204.463 113.654 204.537 113.852C204.531 113.766 204.531 113.68 204.537 113.594C204.669 112.524 205.747 111.821 206.097 110.803C206.348 110.147 206.248 109.423 206.058 108.756Z" fill="black"/>
<path opacity="0.1" d="M199.656 114.336C198.955 113.93 198.335 113.397 197.829 112.763C197.278 112.026 196.977 111.135 196.582 110.305C196.184 109.499 195.73 108.722 195.226 107.979C193.546 105.418 191.707 102.965 189.72 100.635C189.648 100.554 189.579 100.47 189.509 100.387C189.461 100.602 189.443 100.822 189.456 101.043C189.509 101.652 189.92 102.157 190.329 102.622C192.317 104.951 194.156 107.402 195.836 109.963C196.341 110.706 196.794 111.484 197.193 112.289C197.587 113.122 197.889 114.01 198.437 114.747C198.943 115.381 199.563 115.913 200.265 116.318C202.034 117.411 204.042 118.06 206.116 118.209L205.303 116.208C203.301 116.033 201.368 115.391 199.656 114.336Z" fill="black"/>
<path opacity="0.1" d="M187.709 93.1806C187.013 92.3385 186.105 91.6989 185.432 90.8429C185.371 90.7638 185.313 90.6824 185.255 90.5963C185.241 91.4105 185.521 92.2024 186.042 92.827C186.716 93.6853 187.628 94.325 188.32 95.167C188.59 95.494 188.824 95.8497 189.017 96.2276C188.873 95.1098 188.42 94.0544 187.709 93.1806Z" fill="black"/>
</g>
<path d="M97.0695 69.3039L95.3861 67.6082C95.3029 67.5242 95.204 67.4575 95.095 67.412C94.986 67.3664 94.8691 67.343 94.751 67.343C94.6329 67.343 94.516 67.3664 94.407 67.412C94.298 67.4575 94.199 67.5242 94.1159 67.6082L83.5438 78.1009L79.0716 73.5884C78.9044 73.421 78.6776 73.3269 78.4412 73.3269C78.2047 73.3269 77.9779 73.421 77.8107 73.5884L76.1087 75.2748C75.9415 75.4442 75.8477 75.6728 75.8477 75.911C75.8477 76.1492 75.9415 76.3778 76.1087 76.5471L82.9006 83.4019C83.0693 83.5693 83.2971 83.6631 83.5345 83.6631C83.7719 83.6631 83.9997 83.5693 84.1684 83.4019L97.0695 70.5762C97.1534 70.493 97.22 70.3939 97.2655 70.2847C97.3109 70.1755 97.3343 70.0584 97.3343 69.9401C97.3343 69.8218 97.3109 69.7046 97.2655 69.5954C97.22 69.4863 97.1534 69.3872 97.0695 69.3039Z" fill="#3ACC6C"/>
<path d="M143.742 69.3039L142.059 67.6082C141.975 67.5242 141.877 67.4575 141.768 67.412C141.659 67.3664 141.542 67.343 141.424 67.343C141.305 67.343 141.188 67.3664 141.079 67.412C140.97 67.4575 140.872 67.5242 140.788 67.6082L130.216 78.1009L125.744 73.5884C125.577 73.421 125.35 73.3269 125.114 73.3269C124.877 73.3269 124.65 73.421 124.483 73.5884L122.781 75.2748C122.614 75.4442 122.52 75.6728 122.52 75.911C122.52 76.1492 122.614 76.3778 122.781 76.5471L129.573 83.4019C129.742 83.5693 129.97 83.6631 130.207 83.6631C130.444 83.6631 130.672 83.5693 130.841 83.4019L143.742 70.5762C143.826 70.493 143.893 70.3939 143.938 70.2847C143.983 70.1755 144.007 70.0584 144.007 69.9401C144.007 69.8218 143.983 69.7046 143.938 69.5954C143.893 69.4863 143.826 69.3872 143.742 69.3039Z" fill="#3ACC6C"/>
</g>
<defs>
<linearGradient id="paint0_linear" x1="194.696" y1="182.998" x2="194.696" y2="79.6082" gradientUnits="userSpaceOnUse">
<stop stop-color="#808080" stop-opacity="0.25"/>
<stop offset="0.54" stop-color="#808080" stop-opacity="0.12"/>
<stop offset="1" stop-color="#808080" stop-opacity="0.1"/>
</linearGradient>
<clipPath id="clip0">
<rect width="262" height="183" fill="white"/>
</clipPath>
</defs>
</svg>
