<svg width="131" height="120" viewBox="0 0 131 120" fill="none" xmlns="http://www.w3.org/2000/svg">
<g clip-path="url(#clip0)">
<path d="M112.896 11.0341L3.12982 43.1537L6.03722 53.1756L115.804 21.056L112.896 11.0341Z" fill="#00A3FF"/>
<path d="M16.2445 89.1884L0.0657624 33.4199C-0.0541822 33.0064 -0.00566806 32.562 0.200625 32.1845C0.406918 31.8069 0.754092 31.5272 1.16578 31.4067L108.271 0.0656975C108.683 -0.0543607 109.125 -0.00547181 109.501 0.201638C109.877 0.408748 110.156 0.757156 110.276 1.17038L124.609 50.5772L124.165 50.7071L109.832 1.30019C109.746 1.00515 109.547 0.756425 109.279 0.608512C109.01 0.460599 108.695 0.425553 108.401 0.511057L1.295 31.8521C1.00093 31.9381 0.752952 32.138 0.6056 32.4077C0.458248 32.6773 0.423595 32.9948 0.509265 33.2901L16.688 89.0586L16.2445 89.1884Z" fill="#3F3D56"/>
<path d="M100.903 50.8063C100.578 50.806 100.262 50.7 100.002 50.5041C99.7416 50.3083 99.5518 50.0332 99.4605 49.72L96.747 40.3662C96.6361 39.9823 96.6813 39.5699 96.8728 39.2194C97.0643 38.869 97.3863 38.6091 97.7683 38.4969L107.082 35.7716C107.464 35.6602 107.875 35.7057 108.224 35.898C108.573 36.0903 108.831 36.4138 108.943 36.7975L111.657 46.1513C111.768 46.5352 111.722 46.9476 111.531 47.2981C111.339 47.6485 111.017 47.9084 110.635 48.0206L101.322 50.7459C101.186 50.7859 101.044 50.8063 100.903 50.8063Z" fill="#00A3FF"/>
<path d="M15.9939 33.5919C15.966 33.4958 15.9329 33.4013 15.8946 33.3089C15.6342 32.6741 15.1494 32.1584 14.5333 31.8608C13.9173 31.5632 13.2135 31.5048 12.5572 31.6967C11.9009 31.8886 11.3383 32.3173 10.9776 32.9005C10.6169 33.4837 10.4835 34.1802 10.6031 34.8561C10.6199 34.9547 10.6423 35.0523 10.6701 35.1484C10.8387 35.7266 11.1894 36.2344 11.6694 36.5957C12.1495 36.957 12.7332 37.1524 13.3331 37.1526C13.5951 37.1532 13.8557 37.1157 14.1069 37.0413C14.812 36.8343 15.4067 36.355 15.7604 35.7084C16.1142 35.0617 16.1982 34.3006 15.9939 33.5919ZM13.9776 36.5959C13.3895 36.7673 12.7578 36.6975 12.2209 36.4018C11.684 36.1061 11.2858 35.6086 11.1135 35.0185C11.0865 34.9224 11.0649 34.8248 11.0488 34.7262C10.9622 34.1693 11.0805 33.5997 11.3816 33.1241C11.6828 32.6484 12.1461 32.2991 12.685 32.1417C13.2239 31.9842 13.8015 32.0292 14.3097 32.2684C14.818 32.5075 15.2221 32.9244 15.4465 33.4411C15.4883 33.5318 15.5231 33.6257 15.5505 33.7218C15.7209 34.3124 15.651 34.9468 15.3561 35.4857C15.0612 36.0246 14.5654 36.4239 13.9776 36.5959V36.5959Z" fill="#00A3FF"/>
<path d="M9.19588 35.5799C9.04807 35.0701 9.06227 34.5267 9.2365 34.0254C9.41073 33.524 9.73631 33.0898 10.1679 32.7831C9.76355 32.7633 9.36035 32.8408 8.99189 33.0092C8.62342 33.1776 8.30036 33.432 8.04961 33.7512C7.79886 34.0704 7.62769 34.4451 7.55034 34.8442C7.473 35.2433 7.49173 35.6551 7.60497 36.0455C7.71821 36.4358 7.92268 36.7933 8.20135 37.0882C8.48002 37.3831 8.82483 37.6069 9.20704 37.7408C9.58925 37.8748 9.9978 37.9151 10.3987 37.8584C10.7995 37.8017 11.1811 37.6496 11.5116 37.4148C10.9835 37.3889 10.4766 37.1982 10.0615 36.8693C9.64646 36.5404 9.34386 36.0897 9.19588 35.5799Z" fill="#00A3FF"/>
<path d="M80.9961 47.0763C80.9469 46.8988 80.8634 46.7327 80.7503 46.5877C80.6372 46.4426 80.4967 46.3213 80.3369 46.2309C80.1771 46.1404 80.0011 46.0824 79.8189 46.0603C79.6368 46.0382 79.4521 46.0524 79.2754 46.102L63.9412 50.4097L62.2898 50.8736H72.6604L74.3118 50.4097L80.0283 48.8045C80.3847 48.7039 80.6868 48.4655 80.8682 48.1414C81.0496 47.8174 81.0956 47.4343 80.9961 47.0763Z" fill="#CCCCCC"/>
<path d="M70.1474 43.8589C70.0475 43.5009 69.8101 43.1974 69.4874 43.0151C69.1647 42.8329 68.7831 42.7868 68.4266 42.887L45.4174 49.3497C45.0958 49.4411 44.8174 49.645 44.6324 49.9244C44.4473 50.2039 44.3677 50.5405 44.408 50.8737H50.3647L52.0184 50.4098L69.1796 45.5894C69.5363 45.4886 69.8385 45.2497 70.0199 44.9252C70.2014 44.6008 70.2472 44.2173 70.1474 43.8589Z" fill="#CCCCCC"/>
<path d="M129.383 50.4092H17.824C17.3954 50.4097 16.9844 50.5809 16.6813 50.8853C16.3782 51.1897 16.2077 51.6025 16.2072 52.033V118.376C16.2077 118.807 16.3782 119.219 16.6813 119.524C16.9844 119.828 17.3954 120 17.824 120H129.383C129.812 120 130.223 119.828 130.526 119.524C130.829 119.219 130.999 118.807 131 118.376V52.033C130.999 51.6025 130.829 51.1897 130.526 50.8853C130.223 50.5809 129.812 50.4097 129.383 50.4092ZM130.538 118.376C130.538 118.684 130.416 118.979 130.2 119.196C129.983 119.414 129.689 119.536 129.383 119.536H17.824C17.5178 119.536 17.2241 119.414 17.0075 119.196C16.791 118.979 16.6693 118.684 16.6692 118.376V52.033C16.6693 51.7254 16.791 51.4305 17.0075 51.213C17.2241 50.9955 17.5178 50.8732 17.824 50.8731H129.383C129.689 50.8732 129.983 50.9955 130.2 51.213C130.416 51.4305 130.538 51.7254 130.538 52.033V118.376Z" fill="#3F3D56"/>
<path d="M28.6788 59.4566C28.1306 59.4566 27.5948 59.2933 27.139 58.9874C26.6832 58.6816 26.3279 58.2468 26.1181 57.7382C25.9084 57.2295 25.8535 56.6698 25.9604 56.1299C26.0674 55.5899 26.3313 55.0939 26.719 54.7046C27.1066 54.3153 27.6005 54.0502 28.1381 53.9428C28.6758 53.8354 29.233 53.8905 29.7395 54.1012C30.2459 54.3119 30.6788 54.6686 30.9834 55.1264C31.2879 55.5842 31.4505 56.1224 31.4505 56.6729C31.4496 57.4109 31.1574 58.1185 30.6377 58.6403C30.1181 59.1622 29.4137 59.4557 28.6788 59.4566ZM28.6788 54.3532C28.222 54.3532 27.7754 54.4893 27.3956 54.7442C27.0158 54.9991 26.7197 55.3613 26.5449 55.7852C26.3701 56.2091 26.3244 56.6755 26.4135 57.1255C26.5026 57.5755 26.7226 57.9888 27.0456 58.3132C27.3686 58.6376 27.7802 58.8585 28.2282 58.948C28.6763 59.0376 29.1407 58.9916 29.5627 58.816C29.9848 58.6405 30.3455 58.3431 30.5993 57.9617C30.8531 57.5802 30.9885 57.1317 30.9885 56.6729C30.9878 56.0579 30.7443 55.4683 30.3113 55.0334C29.8783 54.5985 29.2912 54.3539 28.6788 54.3532Z" fill="#00A3FF"/>
<path d="M24.3708 56.6729C24.3708 56.1419 24.5358 55.6242 24.8427 55.1918C25.1496 54.7594 25.5832 54.4339 26.083 54.2607C25.7003 54.1281 25.2916 54.0893 24.8909 54.1475C24.4903 54.2056 24.1092 54.3591 23.7796 54.5951C23.45 54.8311 23.1812 55.1428 22.9958 55.5042C22.8104 55.8656 22.7137 56.2663 22.7137 56.6729C22.7137 57.0795 22.8104 57.4801 22.9958 57.8416C23.1812 58.203 23.45 58.5147 23.7796 58.7507C24.1092 58.9867 24.4903 59.1401 24.8909 59.1983C25.2916 59.2565 25.7003 59.2176 26.083 59.085C25.5832 58.9118 25.1496 58.5863 24.8427 58.154C24.5358 57.7216 24.3708 57.2039 24.3708 56.6729Z" fill="#00A3FF"/>
<path d="M39.9141 89.5611C39.363 89.5604 38.8346 89.3403 38.4449 88.9489C38.0552 88.5575 37.836 88.0268 37.8354 87.4733V81.2102C37.8354 80.6565 38.0544 80.1254 38.4442 79.7339C38.8341 79.3424 39.3628 79.1224 39.9141 79.1224C40.4654 79.1224 40.9942 79.3424 41.384 79.7339C41.7739 80.1254 41.9929 80.6565 41.9929 81.2102V87.4733C41.9922 88.0268 41.773 88.5575 41.3833 88.9489C40.9936 89.3403 40.4653 89.5604 39.9141 89.5611Z" fill="#00A3FF"/>
<path d="M45.4575 89.5611C44.9063 89.5604 44.378 89.3403 43.9883 88.9489C43.5986 88.5575 43.3794 88.0268 43.3787 87.4733V81.2102C43.3787 80.6565 43.5977 80.1254 43.9876 79.7339C44.3774 79.3424 44.9061 79.1224 45.4575 79.1224C46.0088 79.1224 46.5375 79.3424 46.9273 79.7339C47.3172 80.1254 47.5362 80.6565 47.5362 81.2102V87.4733C47.5356 88.0268 47.3164 88.5575 46.9267 88.9489C46.537 89.3403 46.0086 89.5604 45.4575 89.5611Z" fill="#00A3FF"/>
<path d="M51.0007 89.5611C50.4496 89.5604 49.9213 89.3403 49.5316 88.9489C49.1419 88.5575 48.9226 88.0268 48.922 87.4733V81.2102C48.922 80.6565 49.141 80.1254 49.5309 79.7339C49.9207 79.3424 50.4494 79.1224 51.0007 79.1224C51.5521 79.1224 52.0808 79.3424 52.4706 79.7339C52.8605 80.1254 53.0795 80.6565 53.0795 81.2102V87.4733C53.0789 88.0268 52.8597 88.5575 52.47 88.9489C52.0802 89.3403 51.5519 89.5604 51.0007 89.5611Z" fill="#00A3FF"/>
<path d="M59.5467 89.5611C58.9956 89.5604 58.4672 89.3403 58.0775 88.9489C57.6878 88.5575 57.4686 88.0268 57.468 87.4733V81.2102C57.468 80.6565 57.687 80.1254 58.0768 79.7339C58.4666 79.3424 58.9954 79.1224 59.5467 79.1224C60.098 79.1224 60.6267 79.3424 61.0166 79.7339C61.4064 80.1254 61.6254 80.6565 61.6254 81.2102V87.4733C61.6248 88.0268 61.4056 88.5575 61.0159 88.9489C60.6262 89.3403 60.0978 89.5604 59.5467 89.5611Z" fill="#00A3FF"/>
<path d="M65.09 89.5611C64.5388 89.5604 64.0105 89.3403 63.6208 88.9489C63.2311 88.5575 63.0119 88.0268 63.0112 87.4733V81.2102C63.0112 80.6565 63.2302 80.1254 63.6201 79.7339C64.0099 79.3424 64.5387 79.1224 65.09 79.1224C65.6413 79.1224 66.17 79.3424 66.5599 79.7339C66.9497 80.1254 67.1687 80.6565 67.1687 81.2102V87.4733C67.1681 88.0268 66.9489 88.5575 66.5592 88.9489C66.1695 89.3403 65.6411 89.5604 65.09 89.5611Z" fill="#00A3FF"/>
<path d="M70.6333 89.5611C70.0822 89.5604 69.5538 89.3403 69.1641 88.9489C68.7744 88.5575 68.5552 88.0268 68.5546 87.4733V81.2102C68.5546 80.6565 68.7736 80.1254 69.1634 79.7339C69.5533 79.3424 70.082 79.1224 70.6333 79.1224C71.1846 79.1224 71.7134 79.3424 72.1032 79.7339C72.493 80.1254 72.712 80.6565 72.712 81.2102V87.4733C72.7114 88.0268 72.4922 88.5575 72.1025 88.9489C71.7128 89.3403 71.1844 89.5604 70.6333 89.5611Z" fill="#00A3FF"/>
<path d="M79.1792 89.5611C78.6281 89.5604 78.0997 89.3403 77.71 88.9489C77.3203 88.5575 77.1011 88.0268 77.1005 87.4733V81.2102C77.1005 80.6565 77.3195 80.1254 77.7093 79.7339C78.0992 79.3424 78.6279 79.1224 79.1792 79.1224C79.7305 79.1224 80.2593 79.3424 80.6491 79.7339C81.0389 80.1254 81.2579 80.6565 81.2579 81.2102V87.4733C81.2573 88.0268 81.0381 88.5575 80.6484 88.9489C80.2587 89.3403 79.7303 89.5604 79.1792 89.5611Z" fill="#00A3FF"/>
<path d="M84.7225 89.5611C84.1714 89.5604 83.6431 89.3403 83.2534 88.9489C82.8637 88.5575 82.6444 88.0268 82.6438 87.4733V81.2102C82.6438 80.6565 82.8628 80.1254 83.2526 79.7339C83.6425 79.3424 84.1712 79.1224 84.7225 79.1224C85.2739 79.1224 85.8026 79.3424 86.1924 79.7339C86.5823 80.1254 86.8013 80.6565 86.8013 81.2102V87.4733C86.8006 88.0268 86.5814 88.5575 86.1917 88.9489C85.802 89.3403 85.2737 89.5604 84.7225 89.5611Z" fill="#00A3FF"/>
<path d="M90.2659 89.5611C89.7148 89.5604 89.1864 89.3403 88.7967 88.9489C88.407 88.5575 88.1878 88.0268 88.1871 87.4733V81.2102C88.1871 80.6565 88.4061 80.1254 88.796 79.7339C89.1858 79.3424 89.7146 79.1224 90.2659 79.1224C90.8172 79.1224 91.3459 79.3424 91.7358 79.7339C92.1256 80.1254 92.3446 80.6565 92.3446 81.2102V87.4733C92.344 88.0268 92.1248 88.5575 91.7351 88.9489C91.3454 89.3403 90.817 89.5604 90.2659 89.5611Z" fill="#00A3FF"/>
<path d="M98.8118 89.5611C98.2606 89.5604 97.7323 89.3403 97.3426 88.9489C96.9529 88.5575 96.7337 88.0268 96.733 87.4733V81.2102C96.733 80.6565 96.952 80.1254 97.3419 79.7339C97.7317 79.3424 98.2605 79.1224 98.8118 79.1224C99.3631 79.1224 99.8918 79.3424 100.282 79.7339C100.671 80.1254 100.891 80.6565 100.891 81.2102V87.4733C100.89 88.0268 100.671 88.5575 100.281 88.9489C99.8913 89.3403 99.3629 89.5604 98.8118 89.5611Z" fill="#00A3FF"/>
<path d="M104.355 89.5611C103.804 89.5604 103.276 89.3403 102.886 88.9489C102.496 88.5575 102.277 88.0268 102.276 87.4733V81.2102C102.276 80.6565 102.495 80.1254 102.885 79.7339C103.275 79.3424 103.804 79.1224 104.355 79.1224C104.906 79.1224 105.435 79.3424 105.825 79.7339C106.215 80.1254 106.434 80.6565 106.434 81.2102V87.4733C106.433 88.0268 106.214 88.5575 105.824 88.9489C105.435 89.3403 104.906 89.5604 104.355 89.5611Z" fill="#00A3FF"/>
<path d="M109.898 89.5611C109.347 89.5604 108.819 89.3403 108.429 88.9489C108.039 88.5575 107.82 88.0268 107.82 87.4733V81.2102C107.82 80.6565 108.039 80.1254 108.428 79.7339C108.818 79.3424 109.347 79.1224 109.898 79.1224C110.45 79.1224 110.978 79.3424 111.368 79.7339C111.758 80.1254 111.977 80.6565 111.977 81.2102V87.4733C111.976 88.0268 111.757 88.5575 111.368 88.9489C110.978 89.3403 110.45 89.5604 109.898 89.5611Z" fill="#00A3FF"/>
<path d="M54.0076 112.797H24.1106C23.7401 112.797 23.3849 112.649 23.1229 112.386C22.861 112.123 22.7138 111.766 22.7138 111.394C22.7138 111.022 22.861 110.665 23.1229 110.402C23.3849 110.139 23.7401 109.991 24.1106 109.991H54.0076C54.378 109.991 54.7333 110.139 54.9952 110.402C55.2572 110.665 55.4043 111.022 55.4043 111.394C55.4043 111.766 55.2572 112.123 54.9952 112.386C54.7333 112.649 54.378 112.797 54.0076 112.797Z" fill="#E6E6E6"/>
<path d="M44.4223 106.766H33.6959C33.3255 106.766 32.9702 106.618 32.7082 106.355C32.4463 106.092 32.2991 105.735 32.2991 105.363C32.2991 104.991 32.4463 104.634 32.7082 104.371C32.9702 104.108 33.3255 103.96 33.6959 103.96H44.4223C44.7927 103.96 45.148 104.108 45.4099 104.371C45.6719 104.634 45.819 104.991 45.819 105.363C45.819 105.735 45.6719 106.092 45.4099 106.355C45.148 106.618 44.7927 106.766 44.4223 106.766Z" fill="#E6E6E6"/>
<path d="M130.455 64.2764H16.5861V64.7403H130.455V64.2764Z" fill="#3F3D56"/>
</g>
<defs>
<clipPath id="clip0">
<rect width="131" height="120" fill="white"/>
</clipPath>
</defs>
</svg>
