<svg width="46" height="46" viewBox="0 0 46 46" fill="none" xmlns="http://www.w3.org/2000/svg">
<path d="M46 23C46 35.7025 35.7025 46 23 46C10.2975 46 0 35.7025 0 23C0 10.2975 10.2975 0 23 0C35.7025 0 46 10.2975 46 23Z" fill="#E3F5FF"/>
<path d="M23.0001 34.667C24.2834 34.667 25.3334 33.617 25.3334 32.3337H20.6667C20.6667 33.617 21.7051 34.667 23.0001 34.667ZM30.0001 27.667V21.8337C30.0001 18.252 28.0867 15.2537 24.7501 14.4603V13.667C24.7501 12.6987 23.9684 11.917 23.0001 11.917C22.0317 11.917 21.2501 12.6987 21.2501 13.667V14.4603C17.9017 15.2537 16.0001 18.2403 16.0001 21.8337V27.667L13.6667 30.0003V31.167H32.3334V30.0003L30.0001 27.667Z" fill="#00B7FF"/>
</svg>
