<svg width="32" height="32" viewBox="0 0 32 32" fill="none" xmlns="http://www.w3.org/2000/svg">
<rect width="32" height="32" rx="16" fill="#ECD4D4"/>
<path d="M19.9245 10.8682H17.4008C17.1472 10.1678 16.483 9.66064 15.6981 9.66064C14.9132 9.66064 14.2491 10.1678 13.9955 10.8682H11.4717C10.8076 10.8682 10.2642 11.4116 10.2642 12.0757V20.5286C10.2642 21.1927 10.8076 21.7361 11.4717 21.7361H19.9245C20.5887 21.7361 21.1321 21.1927 21.1321 20.5286V12.0757C21.1321 11.4116 20.5887 10.8682 19.9245 10.8682ZM16.3019 19.9248H15.0943V18.7172H16.3019V19.9248ZM16.3019 17.5097H15.0943V13.8871H16.3019V17.5097ZM15.6981 12.0757C15.366 12.0757 15.0943 11.804 15.0943 11.472C15.0943 11.1399 15.366 10.8682 15.6981 10.8682C16.0302 10.8682 16.3019 11.1399 16.3019 11.472C16.3019 11.804 16.0302 12.0757 15.6981 12.0757Z" fill="#EF1515"/>
</svg>
