<svg width="236" height="176" viewBox="0 0 236 176" fill="none" xmlns="http://www.w3.org/2000/svg">
<g clip-path="url(#clip0)">
<path d="M194.972 60.7548H76.2455V154.407H194.972V60.7548Z" fill="#F2F2F2"/>
<path d="M178.4 143.534H59.1786V49.3881H178.4V143.534ZM59.6733 143.04H177.905V49.8823H59.6733V143.04Z" fill="#3F3D56"/>
<path d="M142.879 172.519H5.32806V173.103H142.879V172.519Z" fill="#3F3D56"/>
<path d="M102.217 124.352L102.147 75.4252L157.588 99.81L102.217 124.352Z" fill="#D0CDE1"/>
<path d="M90.9565 77.5534C90.9565 77.5534 96.1796 71.6898 97.2641 73.9243C98.3486 76.1589 91.9558 79.556 91.9558 79.556L90.9565 77.5534Z" fill="#A0616A"/>
<path d="M93.6909 79.9719C93.6909 79.9719 91.3683 80.8244 90.6955 81.8598C90.0227 82.8976 87.7843 83.9799 87.7843 83.9799L87.5889 84.096L85.4765 85.3538L82.7087 86.9995L73.9477 92.2134L62.3843 96.8391C62.2952 95.2256 62.2086 93.612 62.127 92.0849C62.1023 91.6277 62.0973 91.1731 62.1072 90.7184C62.2532 90.6739 62.4016 90.6344 62.5524 90.6023C65.9732 89.8733 67.4276 88.8132 67.4276 88.8132L74.1159 84.783C74.1159 84.783 79.3671 81.4397 82.6988 79.8706C83.1663 79.6482 83.5967 79.4629 83.9677 79.327C86.9853 78.2199 91.863 76.4309 91.863 76.4309L91.9199 76.5421L93.1269 78.8772L93.6909 79.9719Z" fill="#D0CDE1"/>
<path opacity="0.1" d="M93.6909 79.9719C93.6909 79.9719 91.3683 80.8244 90.6955 81.8598C90.0227 82.8976 87.7843 83.9799 87.7843 83.9799L87.5889 84.096L85.4765 85.3538L82.7087 86.9995L73.9477 92.2134L62.3843 96.8391C62.2952 95.2256 62.2086 93.612 62.127 92.0849C62.1023 91.6277 62.0973 91.1731 62.1072 90.7184C62.2532 90.6739 62.4016 90.6344 62.5524 90.6023C65.9732 89.8733 67.4276 88.8132 67.4276 88.8132L74.1159 84.783C74.1159 84.783 79.3671 81.4397 82.6988 79.8706C83.1663 79.6482 83.5967 79.4629 83.9677 79.327C86.9853 78.2199 91.863 76.4309 91.863 76.4309L91.9199 76.5421L93.1269 78.8772L93.6909 79.9719Z" fill="black"/>
<path d="M91.863 124.299L91.7938 75.373L147.234 99.7576L91.863 124.299Z" fill="#00A3FF"/>
<path opacity="0.2" d="M143.692 98.1996L91.8586 121.173L91.863 124.299L147.234 99.7576L143.692 98.1996Z" fill="black"/>
<path d="M76.3692 164.661V169.851H80.3268L79.8321 164.414L76.3692 164.661Z" fill="#A0616A"/>
<path d="M61.0338 164.414L59.797 170.345L64.7439 170.592V164.414H61.0338Z" fill="#A0616A"/>
<path d="M63.0125 117.465C63.0125 117.465 61.7758 116.971 61.5284 121.419C61.2811 125.866 61.0337 141.187 61.0337 141.187C61.0337 141.187 58.5603 154.777 59.5496 158.731C60.539 162.685 60.539 165.403 60.539 165.403H64.9913L65.2386 162.932L65.486 156.26C65.486 156.26 67.9594 150.082 67.2174 144.399L73.1537 126.361L76.1219 145.635C76.1219 145.635 74.8851 150.33 75.1325 155.272C75.3798 160.214 75.3798 166.638 75.3798 166.638L80.3267 166.144L84.2843 142.916C84.2843 142.916 86.5104 119.689 84.2843 118.453C82.0582 117.218 63.0125 117.465 63.0125 117.465Z" fill="#2F2E41"/>
<path d="M77.8533 168.121C77.8533 168.121 75.6272 165.156 74.6378 167.38C73.6484 169.604 71.4223 172.569 73.1537 174.051C74.8851 175.534 77.1113 176.028 77.8533 175.534C78.5953 175.04 86.2631 171.086 86.2631 171.086C86.2631 171.086 87.7472 166.885 84.779 166.638C81.8108 166.391 80.8215 165.65 80.8215 165.65L77.8533 168.121Z" fill="#2F2E41"/>
<path d="M60.7864 168.862C60.7864 168.862 60.7864 166.391 59.797 167.132C58.8076 167.874 58.0656 171.086 58.0656 171.086C58.0656 171.086 52.1293 175.781 57.8182 175.781C63.5072 175.781 67.2174 176.769 66.7227 174.545C66.228 172.322 65.486 168.615 65.486 168.615C65.486 168.615 63.0125 165.403 60.7864 168.862Z" fill="#2F2E41"/>
<path d="M76.3692 74.7161C79.7843 74.7161 82.5529 71.9503 82.5529 68.5385C82.5529 65.1268 79.7843 62.361 76.3692 62.361C72.9541 62.361 70.1855 65.1268 70.1855 68.5385C70.1855 71.9503 72.9541 74.7161 76.3692 74.7161Z" fill="#A0616A"/>
<path d="M71.546 70.6389C71.546 70.6389 70.5566 77.8049 69.0725 78.7933C67.5884 79.7817 78.9664 80.0288 78.9664 80.0288C78.9664 80.0288 78.2243 74.3455 78.9664 72.8628L71.546 70.6389Z" fill="#A0616A"/>
<path d="M90.9627 119.689C90.9627 119.689 94.6729 126.608 92.1994 126.855C89.7259 127.102 88.7365 119.936 88.7365 119.936L90.9627 119.689Z" fill="#A0616A"/>
<path d="M70.6561 73.0243C71.5944 73.4813 72.6602 73.6069 73.6792 73.3806C74.6983 73.1543 75.6103 72.5894 76.2665 71.7783C77.0984 70.692 77.5808 69.1102 78.9075 68.7725C79.7737 68.5519 80.7726 68.9681 81.546 68.5204C82.9892 67.6849 81.9756 65.0366 83.3157 64.0443C82.7392 64.0364 82.1867 63.8124 81.7678 63.4167C81.3488 63.021 81.094 62.4825 81.0537 61.908C81.0194 62.3705 80.4107 62.5779 79.9666 62.4426C79.5225 62.3073 79.1738 61.9661 78.7592 61.7574C78.0348 61.3928 77.1774 61.4592 76.3697 61.5342C74.3059 61.7261 72.0791 61.9879 70.563 63.3999C69.1383 64.7267 68.6648 66.8484 68.9422 68.7744C69.2196 70.7003 69.7095 71.3325 70.7465 72.9796L70.6561 73.0243Z" fill="#2F2E41"/>
<path d="M86.0157 81.3878L85.9811 81.6349L85.4765 85.3538L83.4062 100.59L83.2949 101.403C83.2949 101.403 83.5398 101.999 83.8465 102.948C84.3659 104.546 85.0684 107.148 85.0956 109.6C85.1039 110.081 85.0808 110.562 85.0263 111.04C84.6553 114.191 84.5613 117.341 84.5391 118.72C84.5316 119.18 84.5316 119.442 84.5316 119.442L62.0231 118.7C62.1637 118.384 62.2884 118.061 62.3966 117.732C63.2098 115.343 63.5041 112.81 63.2598 110.299C63.0397 108.208 62.6959 102.513 62.3842 96.8391C62.2952 95.2255 62.2086 93.612 62.127 92.0849C62.1023 91.6277 62.0973 91.1731 62.1072 90.7184C62.1676 88.0613 62.8117 85.4499 63.994 83.069C65.1762 80.688 66.8677 78.5957 68.9488 76.9399C68.9488 76.9399 69.4039 76.9597 70.1212 77.0017C72.377 77.1327 77.2349 77.4737 78.7611 78.0346C78.8312 78.0593 78.8997 78.0881 78.9664 78.1211C79.7034 78.4843 81.2444 79.2034 82.6988 79.8706C84.4179 80.6613 86.0157 81.3878 86.0157 81.3878Z" fill="#D0CDE1"/>
<path d="M82.5529 81.6349H86.0157C86.0157 81.6349 88.9839 85.0943 88.4892 88.5538C87.9945 92.0132 88.4892 93.7429 88.4892 93.7429L89.9733 101.403C89.9733 101.403 91.7047 109.31 91.7047 112.523V120.924L87.7472 121.418C87.7472 121.418 87.7472 118.947 87.0051 117.959C86.2631 116.971 86.0157 114.5 86.0157 114.5L83.0476 98.685L82.5529 81.6349Z" fill="#D0CDE1"/>
<path d="M31.9786 77.1972L24.8473 79.9525L27.5099 86.8301L34.6412 84.0748L31.9786 77.1972Z" fill="#00A3FF"/>
<path d="M33.3525 83.5324L25.8459 86.4327L23.0431 79.1931L30.5498 76.2927L33.3525 83.5324ZM26.081 85.9257L32.8371 83.3154L30.3146 76.7997L23.5586 79.4101L26.081 85.9257Z" fill="#3F3D56"/>
<path d="M216.445 30.0764L213.959 22.8528L206.979 25.2503L209.465 32.4739L216.445 30.0764Z" fill="#00A3FF"/>
<path d="M210.056 31.2079L207.439 23.6041L214.787 21.0804L217.404 28.6842L210.056 31.2079ZM207.938 23.8581L210.293 30.7015L216.906 28.4302L214.551 21.5868L207.938 23.8581Z" fill="#3F3D56"/>
<path d="M20.8992 172.891L20.5858 172.774C20.5169 172.748 13.6619 170.124 10.4507 164.175C7.23944 158.225 8.81185 151.062 8.82811 150.99L8.90212 150.664L9.21541 150.781C9.28428 150.807 16.1391 153.431 19.3504 159.38C22.5617 165.33 20.9893 172.493 20.9731 172.565L20.8992 172.891ZM10.965 163.898C13.6799 168.928 19.0969 171.506 20.4694 172.095C20.7304 170.626 21.5487 164.683 18.8362 159.657C16.124 154.633 10.7049 152.05 9.33178 151.46C9.07068 152.931 8.2526 158.873 10.965 163.898Z" fill="#3F3D56"/>
<path d="M12.9048 162.088C18.6757 165.556 20.8983 172.446 20.8983 172.446C20.8983 172.446 13.7643 173.712 7.99345 170.243C2.22255 166.775 0 159.885 0 159.885C0 159.885 7.13392 158.619 12.9048 162.088Z" fill="#00A3FF"/>
<path d="M236 6.19275H5.22568V6.68695H236V6.19275Z" fill="#3F3D56"/>
<path d="M9.9404 4.47811C11.1782 4.47811 12.1817 3.47565 12.1817 2.23905C12.1817 1.00246 11.1782 0 9.9404 0C8.70259 0 7.69914 1.00246 7.69914 2.23905C7.69914 3.47565 8.70259 4.47811 9.9404 4.47811Z" fill="#3F3D56"/>
<path d="M16.851 4.47811C18.0888 4.47811 19.0922 3.47565 19.0922 2.23905C19.0922 1.00246 18.0888 0 16.851 0C15.6132 0 14.6097 1.00246 14.6097 2.23905C14.6097 3.47565 15.6132 4.47811 16.851 4.47811Z" fill="#3F3D56"/>
<path d="M23.7615 4.47811C24.9993 4.47811 26.0028 3.47565 26.0028 2.23905C26.0028 1.00246 24.9993 0 23.7615 0C22.5237 0 21.5203 1.00246 21.5203 2.23905C21.5203 3.47565 22.5237 4.47811 23.7615 4.47811Z" fill="#3F3D56"/>
<path d="M143.679 23.0929H90.8949V23.6854H143.679V23.0929Z" fill="#3F3D56"/>
<path d="M143.679 27.2404H90.8949V27.8329H143.679V27.2404Z" fill="#3F3D56"/>
<path d="M143.679 31.3878H90.8949V31.9803H143.679V31.3878Z" fill="#3F3D56"/>
</g>
<defs>
<clipPath id="clip0">
<rect width="236" height="176" fill="white"/>
</clipPath>
</defs>
</svg>
